<svg xmlns:dc="http://purl.org/dc/elements/1.1/" xmlns:cc="http://creativecommons.org/ns#" xmlns:rdf="http://www.w3.org/1999/02/22-rdf-syntax-ns#" xmlns:svg="http://www.w3.org/2000/svg" xmlns="http://www.w3.org/2000/svg" xmlns:sodipodi="http://sodipodi.sourceforge.net/DTD/sodipodi-0.dtd" xmlns:inkscape="http://www.inkscape.org/namespaces/inkscape" viewBox="0 0 26.458333 33.0729175" version="1.1" x="0px" y="0px"><g transform="translate(0,-270.54165)"><g transform="translate(0.00336753,0.64089223)"><path style="color:#000000;font-style:normal;font-variant:normal;font-weight:normal;font-stretch:normal;font-size:medium;line-height:normal;font-family:sans-serif;font-variant-ligatures:normal;font-variant-position:normal;font-variant-caps:normal;font-variant-numeric:normal;font-variant-alternates:normal;font-variant-east-asian:normal;font-feature-settings:normal;font-variation-settings:normal;text-indent:0;text-align:start;text-decoration:none;text-decoration-line:none;text-decoration-style:solid;text-decoration-color:#000000;letter-spacing:normal;word-spacing:normal;text-transform:none;writing-mode:lr-tb;direction:ltr;text-orientation:mixed;dominant-baseline:auto;baseline-shift:baseline;text-anchor:start;white-space:normal;shape-padding:0;shape-margin:0;inline-size:0;clip-rule:nonzero;display:inline;overflow:visible;visibility:visible;opacity:1;isolation:auto;mix-blend-mode:normal;color-interpolation:sRGB;color-interpolation-filters:linearRGB;solid-color:#000000;solid-opacity:1;vector-effect:none;fill:#000000;fill-opacity:1;fill-rule:evenodd;stroke:none;stroke-width:1.11041;stroke-linecap:round;stroke-linejoin:round;stroke-miterlimit:4;stroke-dasharray:none;stroke-dashoffset:0;stroke-opacity:1;color-rendering:auto;image-rendering:auto;shape-rendering:auto;text-rendering:auto;enable-background:accumulate;stop-color:#000000;stop-opacity:1" d="m 15.71382,271.49226 c -0.754232,-0.0142 -1.515713,0.16943 -2.200899,0.55914 -1.56613,0.89076 -2.408566,2.67089 -2.107367,4.44727 a 0.555205,0.555205 0 0 0 0.638723,0.45527 0.555205,0.555205 0 0 0 0.454752,-0.64079 c -0.223811,-1.31993 0.398984,-2.63507 1.562696,-3.29695 1.163719,-0.66189 2.612781,-0.52496 3.632853,0.34209 1.02008,0.86706 1.387658,2.27384 0.921906,3.52899 a 0.555205,0.555205 0 0 0 0.328145,0.71313 0.555205,0.555205 0 0 0 0.712618,-0.32608 c 0.6268,-1.68919 0.12896,-3.59509 -1.243851,-4.76198 -0.686409,-0.58344 -1.519447,-0.92143 -2.377115,-1.002 -0.107209,-0.0101 -0.214715,-0.0161 -0.322461,-0.0181 z m -0.269235,1.70584 a 0.53648502,0.53648502 0 0 0 -0.536919,0.53485 v 0.25735 c -0.143393,0.0539 -0.274521,0.1226 -0.38499,0.21549 -0.264498,0.22412 -0.398425,0.5388 -0.398422,0.92397 0,0.20516 0.03902,0.38704 0.120922,0.54467 0.0802,0.15433 0.18855,0.29027 0.322461,0.40618 0.135398,0.11722 0.330557,0.2358 0.589627,0.3576 0.27201,0.12935 0.45313,0.22348 0.533302,0.2775 v 0.002 c 0.0697,0.046 0.122994,0.0921 0.162263,0.13901 l 0.01757,0.0196 0.02326,0.004 c 0.326847,0.0496 0.648589,0.11373 0.961181,0.19327 l 0.08165,0.0217 -0.0016,-0.0858 c -0.0021,-0.27808 -0.07911,-0.51938 -0.230476,-0.7152 -0.15608,-0.20332 -0.432033,-0.39448 -0.828373,-0.58395 -0.294341,-0.14052 -0.482619,-0.23904 -0.554488,-0.2868 h -0.0021 c -0.0727,-0.0516 -0.122664,-0.10337 -0.152445,-0.15038 -0.0296,-0.0482 -0.04496,-0.10389 -0.04496,-0.17208 0,-0.11047 0.03659,-0.18895 0.11317,-0.2558 0.0744,-0.065 0.185798,-0.1018 0.343649,-0.1018 0.135691,0 0.272089,0.0177 0.412379,0.0527 h 0.0021 c 0.0173,0.004 0.03411,0.009 0.05271,0.0139 0.14686,0.0405 0.288684,0.0591 0.408244,0.0486 0.11956,-0.0105 0.229651,-0.0516 0.271301,-0.15192 0.115938,-0.27945 -0.01582,-0.61424 -0.308509,-0.70539 -0.058,-0.018 -0.115393,-0.0338 -0.172082,-0.0486 -0.0856,-0.0224 -0.174138,-0.0376 -0.263549,-0.0507 v -0.16846 a 0.53648502,0.53648502 0 0 0 -0.536919,-0.53485 z m -1.279509,4.28294 c -1.703081,0.003 -3.345093,0.44527 -4.7909218,1.20303 -0.0561,-0.0445 -0.106455,-0.0842 -0.170015,-0.13436 -1.13293,-0.96381 -2.692808,-1.09051 -4.164087,-0.8537 a 0.55526051,0.55526051 0 0 0 -0.413927,0.78497 l 1.490347,3.16053 c -0.66249,1.07947 -1.054706,2.27212 -1.054716,3.49953 0,0.0574 0.0078,0.1147 0.0098,0.17208 l -1.488282,0.30282 a 0.55526051,0.55526051 0 0 0 -0.419613,0.70487 c 0,0 0.229979,0.76467 0.634587,1.59577 0.404612,0.8311 0.929619,1.80061 1.894459,2.12907 0.55253,0.18809 1.067472,0.11084 1.548742,0.031 0.339931,0.33665 0.715869,0.63865 1.111562,0.91623 v 2.56625 c 0,0.66083 0.550008,1.20923 1.210778,1.20923 h 1.7580318 c 0.66076,0 1.208712,-0.5484 1.208712,-1.20923 v -0.93741 c 0.546489,0.0854 1.090909,0.17983 1.656228,0.17983 0.913032,0 1.758511,-0.19832 2.592091,-0.40824 v 1.16582 c 1.9e-5,0.66083 0.550008,1.20923 1.210779,1.20923 h 1.758032 c 0.66077,0 1.210778,-0.5484 1.210778,-1.20923 v -3.35535 c 1.422871,-1.34202 2.353344,-3.09936 2.353344,-5.06274 -3.9e-5,-4.28565 -4.143544,-7.65999 -9.125024,-7.66 h -0.01913 a 0.55526051,0.55526051 0 0 0 -0.0021,0 z m 0.0021,1.11156 h 0.0021 0.01757 c 4.483952,10e-6 8.013951,2.98663 8.013983,6.54844 0,1.72036 -0.805304,3.28827 -2.162143,4.47311 a 0.55526051,0.55526051 0 0 0 -0.19172,0.41755 v 3.52743 c 0,0.0649 -0.03484,0.0997 -0.09974,0.0997 H 17.98971 c -0.0649,0 -0.09973,-0.0349 -0.09973,-0.0997 v -1.80868 a 0.55526051,0.55526051 0 0 0 -0.728639,-0.5271 c -0.918181,0.30077 -1.921666,0.46664 -2.974496,0.46664 -0.71405,0 -1.415243,-0.079 -2.089793,-0.22841 a 0.55526051,0.55526051 0 0 0 -0.675929,0.54312 v 1.55443 c 0,0.0649 -0.03432,0.0997 -0.09922,0.0997 H 9.5639052 c -0.0649,0 -0.09974,-0.0349 -0.09974,-0.0997 v -2.82205 a 0.55526051,0.55526051 0 0 0 -0.253731,-0.46664 c -0.498559,-0.32328 -0.952042,-0.69592 -1.347721,-1.11156 a 0.55526051,0.55526051 0 0 0 -0.531233,-0.15606 c -0.419471,0.0997 -0.883939,0.12691 -1.28106,-0.008 -0.32944,-0.11215 -0.894627,-0.82361 -1.254186,-1.56218 -0.21596,-0.44359 -0.246483,-0.59087 -0.341582,-0.86145 l 1.30638,-0.26561 a 0.55526051,0.55526051 0 0 0 0.441317,-0.60358 c -0.01971,-0.18667 -0.02894,-0.37336 -0.02894,-0.56069 1.1e-5,-1.11121 0.345073,-2.20579 1.015442,-3.1874 a 0.55526051,0.55526051 0 0 0 0.04289,-0.55088 l -1.236099,-2.62129 c 0.971798,-0.0375 1.879518,0.0938 2.490287,0.6134 a 0.55526051,0.55526051 0 0 0 0.0155,0.014 c 0.16364,0.12919 0.293537,0.23246 0.433565,0.34365 a 0.55526051,0.55526051 0 0 0 0.623218,0.045 c 1.3424508,-0.77759 2.9548828,-1.20153 4.6090208,-1.20509 z m -6.0285708,4.73098 a 0.79762088,0.79762088 0 0 0 -0.780831,0.79737 0.79762088,0.79762088 0 0 0 0.797367,0.79788 0.79762088,0.79762088 0 0 0 0.797883,-0.79788 0.79762088,0.79762088 0 0 0 -0.797883,-0.79737 0.79762088,0.79762088 0 0 0 -0.01654,0 z"/></g></g><text x="0" y="41.458334" fill="#000000" font-size="5px" font-weight="bold" font-family="'Helvetica Neue', Helvetica, Arial-Unicode, Arial, Sans-serif"></text><text x="0" y="46.458334" fill="#000000" font-size="5px" font-weight="bold" font-family="'Helvetica Neue', Helvetica, Arial-Unicode, Arial, Sans-serif"></text></svg>