<svg xmlns="http://www.w3.org/2000/svg" xmlns:xlink="http://www.w3.org/1999/xlink" version="1.1" x="0px" y="0px" viewBox="0 0 66 82.5" enable-background="new 0 0 66 66" xml:space="preserve"><g><path d="M64.8,51.9c-1.6-3.2-5.2-4.8-8.7-4.1l-14.4,2.7c0.1-0.4,0.2-0.9,0.2-1.3c0-2.2-1.8-4-4-4h-7.5l-5.7-1.8   c-2.6-0.8-4.3-0.6-7.1-0.6v-1.2c0-1.3-1.1-2.4-2.4-2.4H3.5c-1.3,0-2.4,1.1-2.4,2.4V59c0,1.3,1.1,2.4,2.4,2.4h11.8   c1.1,0,2-0.7,2.3-1.8L27.7,64c2.9,1.3,6.3,1.3,9.3,0.1l27.2-10.9c0.3-0.1,0.5-0.3,0.6-0.6C64.9,52.4,64.9,52.1,64.8,51.9z    M15.3,59.4H3.5c-0.2,0-0.4-0.2-0.4-0.4V41.6c0-0.2,0.2-0.4,0.4-0.4h11.8c0.2,0,0.4,0.2,0.4,0.4c0,3.2,0,11.7,0,17.4   C15.8,59.2,15.6,59.4,15.3,59.4z M36.3,62.3c-2.5,1-5.3,1-7.8-0.1l-10.8-4.6V44.8c2.8,0,4.3-0.2,6.5,0.5c6.1,1.9,5.8,1.9,6.1,1.9   H38c1.1,0,2,0.9,2,2c0,1.1-0.9,2-2,2H26.3c-0.6,0-1,0.4-1,1c0,0.6,0.4,1,1,1H38c0.5,0-1.2,0.3,18.5-3.5c2.2-0.5,4.5,0.4,5.9,2.1   L36.3,62.3z"/><path d="M51.7,40.2C51.7,40.2,51.7,40.2,51.7,40.2C51.7,40.2,51.7,40.2,51.7,40.2c-1.8,0-3.2-1.4-3.2-3.2c0-0.6-0.4-1-1-1   c-0.6,0-1,0.4-1,1c0,2.5,1.8,4.6,4.2,5.1v1.5c0,0.6,0.4,1,1,1c0.6,0,1-0.4,1-1v-1.5c6.1-1.2,5.2-10.2-1-10.2c-4.2,0-4.2-6.3,0-6.3   c1.7,0,3.2,1.4,3.2,3.2c0,0.6,0.4,1,1,1c0.6,0,1-0.4,1-1c0-2.5-1.8-4.6-4.2-5.1v-1.5c0-0.6-0.4-1-1-1c-0.6,0-1,0.4-1,1v1.5   c-6.1,1.2-5.2,10.2,1,10.2c1.7,0,3.2,1.4,3.2,3.2C54.9,38.8,53.4,40.2,51.7,40.2z"/><path d="M37.8,20C37.8,20,37.8,20,37.8,20C37.8,20,37.8,20,37.8,20c-1.8,0-3.2-1.4-3.2-3.2c0-0.6-0.4-1-1-1c-0.6,0-1,0.4-1,1   c0,2.5,1.8,4.6,4.2,5.1v1.5c0,0.6,0.4,1,1,1c0.6,0,1-0.4,1-1v-1.5c2.4-0.5,4.2-2.6,4.2-5.1c0-2.8-2.3-5.2-5.2-5.2   c-1.7,0-3.2-1.4-3.2-3.2s1.4-3.2,3.2-3.2c1.7,0,3.2,1.4,3.2,3.2c0,0.6,0.4,1,1,1c0.6,0,1-0.4,1-1c0-2.5-1.8-4.6-4.2-5.1V2   c0-0.6-0.4-1-1-1c-0.6,0-1,0.4-1,1v1.5c-2.4,0.5-4.2,2.6-4.2,5.1c0,2.8,2.3,5.2,5.2,5.2c1.7,0,3.2,1.4,3.2,3.2   C41,18.6,39.6,20,37.8,20z"/><path d="M13.4,55.3h-3.3c-0.6,0-1,0.4-1,1c0,0.6,0.4,1,1,1h3.3c0.6,0,1-0.4,1-1C14.4,55.7,14,55.3,13.4,55.3z"/></g><text x="0" y="81" fill="#000000" font-size="5px" font-weight="bold" font-family="'Helvetica Neue', Helvetica, Arial-Unicode, Arial, Sans-serif"></text><text x="0" y="86" fill="#000000" font-size="5px" font-weight="bold" font-family="'Helvetica Neue', Helvetica, Arial-Unicode, Arial, Sans-serif"></text></svg>