<svg xmlns="http://www.w3.org/2000/svg" data-name="Layer 1" viewBox="0 0 512 640" x="0px" y="0px"><title>Artboard 43</title><path d="M330.855,207.4a99.138,99.138,0,1,0-99.137,99.138A99.249,99.249,0,0,0,330.855,207.4Zm-99.137,85.138A85.138,85.138,0,1,1,316.855,207.4,85.234,85.234,0,0,1,231.718,292.534Z"/><path d="M332.946,490h92.836C446.676,490,464,473.15,464,452.256V386.985a37.98,37.98,0,0,0-30-37.045V326A53.977,53.977,0,0,0,417.938,287.6a54.539,54.539,0,0,0-13.552-9.806A333.163,333.163,0,0,0,415,193.852V80.267a6.951,6.951,0,0,0-4.957-6.712L233.679,21.289a6.943,6.943,0,0,0-3.963,0L53.168,73.555A7.144,7.144,0,0,0,48,80.267V193.852A334.278,334.278,0,0,0,228.415,490.214a7.152,7.152,0,0,0,3.262.786,6.968,6.968,0,0,0,3.215-.786C256.331,479.1,277,465.688,295,450.251v2A37.855,37.855,0,0,0,332.946,490ZM450,386.985v65.271C450,465.43,438.956,476,425.782,476H332.946A23.839,23.839,0,0,1,309,452.256V386.985A23.775,23.775,0,0,1,329.784,363.3a7.058,7.058,0,0,0,2.16.292c.962,0,1.892-.592,2.726-.592h89.388c.834,0,1.75.592,2.712.592a8.1,8.1,0,0,0,2.309-.315A23.915,23.915,0,0,1,450,386.985ZM420,326v23H339V326a40.371,40.371,0,0,1,40.385-40.281c.638,0,1.262.016,1.9.045a39.995,39.995,0,0,1,12.34,2.543A40.415,40.415,0,0,1,420,326Zm-188.31,150.1A320.121,320.121,0,0,1,62,193.852V85.493L231.5,35.3,401,85.493V193.852A319.282,319.282,0,0,1,391.112,273c-.2-.045-.378-.075-.58-.117-.639-.134-1.266-.261-1.911-.372-.322-.055-.639-.1-.962-.153-.594-.091-1.186-.173-1.783-.244-.331-.04-.659-.078-.991-.112-.628-.063-1.258-.112-1.89-.153-.29-.02-.578-.044-.868-.059-.918-.045-1.818-.074-2.742-.074A54.387,54.387,0,0,0,325,326v23.933a2.341,2.341,0,0,1-.458.1c-.241.053-.49.109-.729.168-.335.081-.673.168-1,.258-.232.064-.468.127-.7.195-.339.1-.674.206-1.008.314-.218.07-.436.138-.651.212-.361.125-.718.258-1.075.393-.18.069-.364.133-.544.2q-.757.3-1.5.632c-.026.012-.055.022-.082.034-.519.234-1.031.481-1.537.737-.167.084-.329.175-.493.262-.339.177-.677.356-1.01.544-.191.108-.38.222-.569.333-.3.176-.6.354-.892.538-.2.123-.391.249-.585.376-.281.184-.561.37-.838.561-.192.133-.383.267-.573.4q-.41.294-.809.6c-.183.139-.367.279-.548.421-.271.215-.538.435-.8.656-.167.14-.335.277-.5.42-.286.247-.566.5-.844.758-.135.124-.273.245-.407.372q-.6.564-1.169,1.154l-.029.029q-.585.6-1.142,1.239c-.118.134-.232.273-.349.409-.249.29-.5.581-.736.879-.137.17-.269.343-.4.514-.212.273-.423.547-.627.826-.137.185-.27.373-.4.561q-.291.412-.572.832c-.13.194-.257.389-.383.586-.181.283-.359.57-.533.858-.119.2-.239.4-.354.6-.174.3-.342.605-.508.911-.105.194-.212.386-.314.581-.176.338-.343.682-.509,1.026-.081.168-.166.334-.245.5-.234.507-.46,1.019-.672,1.538l-.013.028q-.324.793-.612,1.6c-.063.176-.119.355-.178.531-.125.368-.249.737-.364,1.11-.065.214-.125.431-.187.647-.1.341-.193.683-.282,1.028-.059.231-.114.464-.169.7-.079.338-.156.676-.227,1.017-.05.239-.1.478-.141.718-.065.343-.123.687-.179,1.033-.038.24-.076.479-.11.721-.05.358-.092.719-.133,1.081-.026.231-.054.461-.075.693-.038.4-.064.8-.088,1.2-.013.2-.057.4-.067.593-.027.6-.071,1.208-.071,1.817v44.76A313.143,313.143,0,0,1,231.69,476.092Z"/><path d="M379.364,407.368A17.631,17.631,0,0,0,372,441.094v14.543a7,7,0,0,0,14,0V441.094c7-2.709,10.8-8.916,10.8-16.13A17.472,17.472,0,0,0,379.364,407.368Zm-3.546,16.872a3.621,3.621,0,0,1,3.546-2.872,3.822,3.822,0,0,1,.017,7.632h-.033a3.818,3.818,0,0,1-3.53-3.088,4.823,4.823,0,0,1,0-1.672Z"/><path d="M267.378,169a7,7,0,0,0,0-14H194.622a7,7,0,0,0,0,14h25.834a23.924,23.924,0,0,1,23.06,17H194.622a7,7,0,0,0,0,14h48.906a23.911,23.911,0,0,1-23.072,17H194.622a7.009,7.009,0,0,0-4.593,12.295l48.5,42.179a7,7,0,1,0,9.186-10.571L213.34,231h7.116a37.754,37.754,0,0,0,37.454-31h9.468a7,7,0,0,0,0-14H257.9c-1.2-7-3.99-12-7.959-17Z"/><text x="0" y="527" fill="#000000" font-size="5px" font-weight="bold" font-family="'Helvetica Neue', Helvetica, Arial-Unicode, Arial, Sans-serif">Created by Sou</text><text x="0" y="532" fill="#000000" font-size="5px" font-weight="bold" font-family="'Helvetica Neue', Helvetica, Arial-Unicode, Arial, Sans-serif">from the Noun Project</text></svg>