<svg xmlns:dc="http://purl.org/dc/elements/1.1/" xmlns:cc="http://creativecommons.org/ns#" xmlns:rdf="http://www.w3.org/1999/02/22-rdf-syntax-ns#" xmlns:svg="http://www.w3.org/2000/svg" xmlns="http://www.w3.org/2000/svg" xmlns:sodipodi="http://sodipodi.sourceforge.net/DTD/sodipodi-0.dtd" xmlns:inkscape="http://www.inkscape.org/namespaces/inkscape" version="1.1" x="0px" y="0px" viewBox="0 0 100 125"><g transform="translate(0,-952.36218)"><path style="font-size:medium;font-style:normal;font-variant:normal;font-weight:normal;font-stretch:normal;text-indent:0;text-align:start;text-decoration:none;line-height:normal;letter-spacing:normal;word-spacing:normal;text-transform:none;direction:ltr;block-progression:tb;writing-mode:lr-tb;text-anchor:start;baseline-shift:baseline;opacity:1;color:#000000;fill:#000000;fill-opacity:1;stroke:none;stroke-width:2;marker:none;visibility:visible;display:inline;overflow:visible;enable-background:accumulate;font-family:Sans;-inkscape-font-specification:Sans" d="M 50 7 C 26.2636 7 7 26.26357 7 50 C 7 73.7364 26.2636 93 50 93 C 73.7364 93 93 73.7364 93 50 A 1.0001 1.0001 0 0 0 92 49 L 87.21875 49 A 1.0001 1.0001 0 1 0 87.21875 51 L 90.90625 51 C 90.362412 73.1809 72.312553 91 50 91 C 27.344478 91 9 72.6556 9 50 C 9 27.34445 27.344478 9 50 9 C 66.324545 9 81.586319 19.670659 88.21875 33.5625 L 75.375 30.65625 A 1.0001 1.0001 0 1 0 74.9375 32.59375 L 89.90625 35.96875 A 1.0001 1.0001 0 0 0 91.09375 35.21875 L 94.5 20.21875 A 1.0001 1.0001 0 0 0 93.625 19 A 1.0001 1.0001 0 0 0 92.53125 19.78125 L 89.75 32.09375 C 82.635951 17.778523 66.955036 7 50 7 z M 49.875 14.03125 A 1.0001 1.0001 0 0 0 49 15.03125 L 49 18.53125 A 1.0001 1.0001 0 1 0 51 18.53125 L 51 15.03125 A 1.0001 1.0001 0 0 0 49.875 14.03125 z M 25.09375 24.28125 A 1.0001 1.0001 0 0 0 24.59375 26 L 27.0625 28.46875 A 1.0054782 1.0054782 0 1 0 28.46875 27.03125 L 26 24.5625 A 1.0001 1.0001 0 0 0 25.09375 24.28125 z M 49.875 27.78125 A 1.0001 1.0001 0 0 0 49 28.78125 L 49 49.65625 A 1.0001 1.0001 0 0 0 49.28125 50.375 L 60.46875 61.8125 A 1.0054956 1.0054956 0 0 0 61.90625 60.40625 L 51 49.25 L 51 28.78125 A 1.0001 1.0001 0 0 0 49.875 27.78125 z M 14.84375 49 A 1.0059637 1.0059637 0 1 0 15.0625 51 L 18.5625 51 A 1.0001 1.0001 0 1 0 18.5625 49 L 15.0625 49 A 1.0001 1.0001 0 0 0 14.84375 49 z M 27.625 71.21875 A 1.0001 1.0001 0 0 0 27.0625 71.53125 L 24.59375 74 A 1.0001 1.0001 0 1 0 26 75.40625 L 28.46875 72.9375 A 1.0001 1.0001 0 0 0 27.625 71.21875 z M 72.125 71.21875 A 1.0001 1.0001 0 0 0 71.53125 72.9375 L 74 75.40625 A 1.0001 1.0001 0 1 0 75.40625 74 L 72.9375 71.53125 A 1.0001 1.0001 0 0 0 72.125 71.21875 z M 49.78125 80.4375 A 1.0001 1.0001 0 0 0 49 81.4375 L 49 84.9375 A 1.0001 1.0001 0 1 0 51 84.9375 L 51 81.4375 A 1.0001 1.0001 0 0 0 49.78125 80.4375 z " transform="translate(0,952.36218)"/></g><text x="0" y="115" fill="#000000" font-size="5px" font-weight="bold" font-family="'Helvetica Neue', Helvetica, Arial-Unicode, Arial, Sans-serif"></text><text x="0" y="120" fill="#000000" font-size="5px" font-weight="bold" font-family="'Helvetica Neue', Helvetica, Arial-Unicode, Arial, Sans-serif"></text></svg>